<!-- Generated by IcoMoon.io -->
<svg version="1.1" xmlns="http://www.w3.org/2000/svg" width="15" height="20" viewBox="0 0 15 20">
<title>document</title>
<path fill="#698cf0" d="M0.938 20h13.125c0.517 0 0.938-0.421 0.938-0.938v-13.125c0-0.011-0.005-0.019-0.006-0.029-0.001-0.014-0.005-0.027-0.008-0.041-0.011-0.044-0.029-0.084-0.056-0.119-0.004-0.006-0.004-0.013-0.008-0.018l-5-5.625c-0.002-0.002-0.004-0.002-0.006-0.004-0.038-0.040-0.085-0.068-0.139-0.084-0.012-0.004-0.022-0.005-0.035-0.007-0.018-0.003-0.035-0.011-0.054-0.011h-8.75c-0.517 0-0.938 0.421-0.938 0.938v18.125c0 0.517 0.421 0.938 0.938 0.938zM10 1.134l3.992 4.491h-3.679c-0.137 0-0.313-0.263-0.313-0.469v-4.022zM0.625 0.938c0-0.172 0.141-0.313 0.313-0.313h8.438v4.531c0 0.506 0.409 1.094 0.938 1.094h4.063v12.813c0 0.172-0.141 0.313-0.313 0.313h-13.125c-0.175 0-0.313-0.137-0.313-0.313v-18.125zM3.438 8.75h8.125c0.172 0 0.313-0.14 0.313-0.313s-0.14-0.313-0.313-0.313h-8.125c-0.172 0-0.313 0.14-0.313 0.313s0.14 0.313 0.313 0.313zM3.438 11.25h8.125c0.172 0 0.313-0.14 0.313-0.313s-0.14-0.313-0.313-0.313h-8.125c-0.172 0-0.313 0.14-0.313 0.313s0.14 0.313 0.313 0.313zM3.438 6.25h3.75c0.172 0 0.313-0.14 0.313-0.313s-0.14-0.313-0.313-0.313h-3.75c-0.172 0-0.313 0.14-0.313 0.313s0.14 0.313 0.313 0.313zM3.438 13.75h8.125c0.172 0 0.313-0.14 0.313-0.313s-0.14-0.313-0.313-0.313h-8.125c-0.172 0-0.313 0.14-0.313 0.313s0.14 0.313 0.313 0.313zM3.438 16.25h8.125c0.172 0 0.313-0.14 0.313-0.313s-0.14-0.313-0.313-0.313h-8.125c-0.172 0-0.313 0.14-0.313 0.313s0.14 0.313 0.313 0.313z"></path>
</svg>
<!-- Generated by IcoMoon.io -->
<svg version="1.1" xmlns="http://www.w3.org/2000/svg" width="15" height="20" viewBox="0 0 15 20">
<title>document</title>
<path fill="#698cf0" d="M0.938 20h13.125c0.517 0 0.938-0.421 0.938-0.938v-13.125c0-0.011-0.005-0.019-0.006-0.029-0.001-0.014-0.005-0.027-0.008-0.041-0.011-0.044-0.029-0.084-0.056-0.119-0.004-0.006-0.004-0.013-0.008-0.018l-5-5.625c-0.002-0.002-0.004-0.002-0.006-0.004-0.038-0.040-0.085-0.068-0.139-0.084-0.012-0.004-0.022-0.005-0.035-0.007-0.018-0.003-0.035-0.011-0.054-0.011h-8.75c-0.517 0-0.938 0.421-0.938 0.938v18.125c0 0.517 0.421 0.938 0.938 0.938zM10 1.134l3.992 4.491h-3.679c-0.137 0-0.313-0.263-0.313-0.469v-4.022zM0.625 0.938c0-0.172 0.141-0.313 0.313-0.313h8.438v4.531c0 0.506 0.409 1.094 0.938 1.094h4.063v12.813c0 0.172-0.141 0.313-0.313 0.313h-13.125c-0.175 0-0.313-0.137-0.313-0.313v-18.125zM3.438 8.75h8.125c0.172 0 0.313-0.14 0.313-0.313s-0.14-0.313-0.313-0.313h-8.125c-0.172 0-0.313 0.14-0.313 0.313s0.14 0.313 0.313 0.313zM3.438 11.25h8.125c0.172 0 0.313-0.14 0.313-0.313s-0.14-0.313-0.313-0.313h-8.125c-0.172 0-0.313 0.14-0.313 0.313s0.14 0.313 0.313 0.313zM3.438 6.25h3.75c0.172 0 0.313-0.14 0.313-0.313s-0.14-0.313-0.313-0.313h-3.75c-0.172 0-0.313 0.14-0.313 0.313s0.14 0.313 0.313 0.313zM3.438 13.75h8.125c0.172 0 0.313-0.14 0.313-0.313s-0.14-0.313-0.313-0.313h-8.125c-0.172 0-0.313 0.14-0.313 0.313s0.14 0.313 0.313 0.313zM3.438 16.25h8.125c0.172 0 0.313-0.14 0.313-0.313s-0.14-0.313-0.313-0.313h-8.125c-0.172 0-0.313 0.14-0.313 0.313s0.14 0.313 0.313 0.313z"></path>
</svg>
