<!-- Generated by IcoMoon.io -->
<svg version="1.1" xmlns="http://www.w3.org/2000/svg" width="26" height="20" viewBox="0 0 26 20">
<title>gears</title>
<path fill="#698cf0" d="M2.308 13.575c0.11 0.026 0.259 0.162 0.303 0.286l0.219 0.528c0.049 0.101 0.040 0.302-0.019 0.398l-0.873 1.428c-0.187 0.306-0.148 0.74 0.103 1.021l0.739 0.739c0.257 0.229 0.712 0.27 1.008 0.091l1.427-0.873c0.089-0.055 0.281-0.074 0.416-0.011l0.527 0.218c0.106 0.037 0.242 0.186 0.268 0.296l0.392 1.628c0.083 0.345 0.412 0.629 0.766 0.661 0 0 0.217 0.020 0.542 0.020s0.542-0.020 0.542-0.020c0.353-0.032 0.683-0.316 0.766-0.661l0.393-1.628c0.026-0.109 0.161-0.259 0.285-0.302l0.527-0.219c0.093-0.046 0.309-0.036 0.398 0.019l1.428 0.873c0.126 0.077 0.276 0.117 0.435 0.117 0.216 0 0.424-0.076 0.586-0.22l0.739-0.739c0.239-0.268 0.277-0.702 0.091-1.008l-0.873-1.427c-0.059-0.096-0.068-0.297-0.011-0.416l0.217-0.527c0.037-0.106 0.186-0.242 0.296-0.268l1.627-0.392c0.345-0.083 0.629-0.412 0.661-0.766 0 0 0.020-0.217 0.020-0.542s-0.020-0.542-0.020-0.542c-0.032-0.353-0.316-0.682-0.661-0.766l-1.627-0.391c-0.11-0.026-0.259-0.162-0.303-0.286l-0.219-0.527c-0.049-0.101-0.040-0.302 0.019-0.398l0.873-1.428c0.187-0.306 0.148-0.74-0.103-1.021l-0.739-0.739c-0.258-0.229-0.713-0.271-1.008-0.091l-1.427 0.873c-0.089 0.054-0.282 0.075-0.416 0.011l-0.527-0.218c-0.106-0.037-0.241-0.186-0.268-0.296l-0.392-1.628c-0.083-0.345-0.413-0.629-0.766-0.661-0.001 0.001-0.218-0.019-0.543-0.019s-0.542 0.020-0.543 0.020c-0.353 0.032-0.683 0.316-0.766 0.661l-0.391 1.626c-0.026 0.11-0.162 0.259-0.286 0.303l-0.527 0.219c-0.094 0.046-0.309 0.036-0.398-0.019l-1.427-0.873c-0.296-0.18-0.741-0.149-1.021 0.102l-0.739 0.739c-0.239 0.268-0.278 0.702-0.091 1.008l0.873 1.427c0.059 0.096 0.068 0.297 0.011 0.416l-0.217 0.527c-0.037 0.106-0.186 0.242-0.296 0.268l-1.628 0.392c-0.345 0.083-0.629 0.413-0.661 0.766 0.001 0-0.019 0.217-0.019 0.542s0.020 0.542 0.020 0.543c0.032 0.353 0.316 0.682 0.661 0.766l1.626 0.391zM0.625 11.875c0-0.286 0.017-0.479 0.018-0.486 0.007-0.084 0.103-0.195 0.185-0.215l1.627-0.392c0.316-0.076 0.634-0.365 0.732-0.654l0.202-0.492c0.143-0.292 0.122-0.721-0.047-0.998l-0.873-1.427c-0.042-0.069-0.030-0.207 0.011-0.254l0.713-0.714c0.057-0.051 0.202-0.063 0.267-0.024l1.428 0.873c0.271 0.166 0.734 0.177 0.98 0.055l0.492-0.204c0.307-0.106 0.596-0.424 0.672-0.74l0.391-1.627c0.020-0.082 0.131-0.178 0.215-0.186 0.006 0 0.199-0.017 0.486-0.017s0.479 0.017 0.486 0.017c0.084 0.008 0.195 0.103 0.215 0.185l0.392 1.627c0.076 0.316 0.364 0.634 0.654 0.733l0.492 0.203c0.286 0.14 0.728 0.118 0.998-0.047l1.427-0.873c0.065-0.039 0.219-0.019 0.254 0.011l0.714 0.713c0.054 0.061 0.066 0.198 0.024 0.267l-0.873 1.428c-0.169 0.277-0.189 0.706-0.055 0.98l0.204 0.492c0.106 0.307 0.424 0.596 0.74 0.672l1.627 0.391c0.083 0.020 0.178 0.131 0.186 0.215 0 0.006 0.017 0.199 0.017 0.486s-0.017 0.479-0.017 0.486c-0.008 0.084-0.103 0.195-0.185 0.215l-1.627 0.392c-0.316 0.076-0.634 0.365-0.732 0.654l-0.203 0.492c-0.143 0.292-0.123 0.721 0.047 0.998l0.873 1.427c0.042 0.069 0.030 0.207-0.011 0.254l-0.713 0.714c-0.034 0.030-0.095 0.049-0.157 0.049-0.043 0-0.083-0.009-0.109-0.026l-1.427-0.873c-0.27-0.165-0.734-0.177-0.98-0.055l-0.492 0.204c-0.307 0.106-0.596 0.424-0.671 0.74l-0.392 1.627c-0.020 0.082-0.131 0.178-0.215 0.186-0.007 0-0.2 0.017-0.486 0.017s-0.479-0.017-0.486-0.017c-0.084-0.008-0.195-0.103-0.215-0.185l-0.392-1.628c-0.076-0.316-0.365-0.634-0.654-0.732l-0.492-0.203c-0.128-0.063-0.282-0.095-0.447-0.095-0.206 0-0.401 0.051-0.551 0.143l-1.427 0.873c-0.065 0.039-0.219 0.018-0.254-0.011l-0.714-0.714c-0.054-0.061-0.066-0.197-0.024-0.267l0.873-1.427c0.169-0.277 0.189-0.706 0.055-0.98l-0.204-0.493c-0.106-0.307-0.424-0.596-0.74-0.672l-1.627-0.391c-0.083-0.020-0.178-0.131-0.186-0.215 0-0.006-0.017-0.199-0.017-0.486zM8.125 15.313c1.896 0 3.438-1.542 3.438-3.438s-1.542-3.438-3.438-3.438-3.438 1.542-3.438 3.438 1.542 3.438 3.438 3.438zM8.125 9.063c1.551 0 2.813 1.262 2.813 2.813s-1.262 2.813-2.813 2.813-2.813-1.262-2.813-2.813 1.262-2.813 2.813-2.813zM17.173 3.321c-0.025 0.038-0.116 0.086-0.162 0.086l-1.163-0.011c-0.283 0-0.566 0.201-0.658 0.466 0 0-0.051 0.146-0.107 0.369s-0.080 0.376-0.080 0.376c-0.044 0.282 0.113 0.594 0.365 0.726l1.026 0.537c0.039 0.021 0.098 0.108 0.104 0.171l0.058 0.397c0.009 0.044-0.021 0.144-0.052 0.175l-0.826 0.81c-0.207 0.202-0.261 0.549-0.119 0.821l0.374 0.625c0.158 0.232 0.501 0.351 0.769 0.268l1.14-0.349c0.062 0 0.124 0.024 0.159 0.052l0.322 0.238c0.038 0.025 0.087 0.117 0.086 0.162l-0.011 1.157c-0.003 0.285 0.197 0.571 0.466 0.664 0 0 0.146 0.051 0.369 0.107s0.376 0.080 0.376 0.080c0.016 0.003 0.081 0.008 0.098 0.008 0.255 0 0.514-0.153 0.628-0.372l0.537-1.026c0.021-0.039 0.107-0.098 0.171-0.104l0.414-0.060c0.063 0 0.136 0.033 0.157 0.054l0.81 0.826c0.197 0.201 0.529 0.273 0.821 0.119l0.624-0.374c0.239-0.163 0.354-0.494 0.268-0.769l-0.345-1.104c-0.013-0.042 0.008-0.145 0.049-0.194l0.238-0.322c0.025-0.038 0.116-0.086 0.162-0.086l1.163 0.011c0.282 0 0.566-0.201 0.658-0.466 0 0 0.051-0.146 0.107-0.369s0.080-0.376 0.080-0.376c0.044-0.282-0.113-0.594-0.365-0.726l-1.026-0.537c-0.039-0.021-0.098-0.108-0.104-0.171l-0.058-0.396c-0.009-0.044 0.021-0.144 0.053-0.175l0.826-0.81c0.207-0.202 0.261-0.549 0.119-0.821l-0.374-0.625c-0.158-0.232-0.5-0.352-0.769-0.268l-1.141 0.349c-0.062 0-0.124-0.024-0.159-0.052l-0.322-0.237c-0.038-0.025-0.087-0.117-0.086-0.162l0.011-1.158c0.003-0.285-0.197-0.571-0.466-0.664 0 0-0.146-0.051-0.369-0.107s-0.376-0.080-0.376-0.080c-0.016-0.002-0.081-0.007-0.098-0.007-0.255 0-0.514 0.153-0.628 0.373l-0.538 1.026c-0.021 0.039-0.107 0.098-0.171 0.104l-0.414 0.059c-0.063 0-0.136-0.032-0.157-0.054l-0.81-0.826c-0.196-0.201-0.527-0.273-0.821-0.119l-0.625 0.374c-0.239 0.163-0.354 0.494-0.268 0.769l0.345 1.104c0.013 0.042-0.008 0.145-0.049 0.194l-0.237 0.322zM17.686 3.679l0.214-0.291c0.168-0.198 0.233-0.521 0.155-0.768l-0.344-1.104c-0.003-0.018 0.011-0.057 0.008-0.058l0.593-0.355 0.071 0.011 0.811 0.826c0.144 0.146 0.381 0.241 0.603 0.241 0.051 0 0.101-0.005 0.128-0.012l0.359-0.053c0.257-0.022 0.532-0.205 0.652-0.434l0.537-1.025c0.010-0.016 0.049-0.038 0.075-0.038 0.007 0.001 0.134 0.022 0.321 0.068s0.308 0.089 0.314 0.091c0.019 0.008 0.048 0.049 0.049 0.069l-0.011 1.157c-0.002 0.259 0.153 0.549 0.354 0.681l0.291 0.214c0.193 0.163 0.524 0.232 0.768 0.155l1.109-0.345c0.026 0 0.056 0.016 0.052 0.008l0.355 0.593c0.007 0.016 0 0.057-0.011 0.071l-0.826 0.811c-0.184 0.182-0.28 0.497-0.229 0.731l0.053 0.359c0.023 0.258 0.205 0.532 0.434 0.652l1.025 0.537c0.018 0.011 0.039 0.055 0.038 0.075-0.001 0.007-0.022 0.134-0.068 0.321s-0.089 0.308-0.091 0.314c-0.008 0.019-0.049 0.048-0.069 0.049l-1.164-0.011c-0.257 0-0.544 0.156-0.674 0.354l-0.214 0.291c-0.168 0.198-0.233 0.521-0.155 0.768l0.344 1.104c0.003 0.017-0.011 0.057-0.008 0.058l-0.593 0.355-0.071-0.011-0.811-0.826c-0.144-0.146-0.381-0.241-0.603-0.241-0.051 0-0.101 0.005-0.127 0.012l-0.359 0.053c-0.258 0.023-0.532 0.205-0.652 0.434l-0.537 1.025c-0.010 0.016-0.049 0.038-0.075 0.038v0c-0.007-0.001-0.134-0.022-0.321-0.068s-0.308-0.089-0.314-0.091c-0.019-0.008-0.048-0.049-0.049-0.069l0.011-1.158c0.003-0.259-0.153-0.549-0.354-0.681l-0.291-0.214c-0.139-0.118-0.343-0.188-0.547-0.188-0.079 0-0.154 0.011-0.222 0.033l-1.109 0.345c-0.027 0-0.056-0.014-0.052-0.008l-0.355-0.592c-0.007-0.016 0-0.058 0.011-0.071l0.826-0.811c0.184-0.182 0.28-0.497 0.229-0.731l-0.052-0.359c-0.023-0.258-0.205-0.532-0.434-0.652l-1.025-0.537c-0.018-0.011-0.039-0.055-0.038-0.075 0.001-0.007 0.022-0.134 0.068-0.321s0.089-0.308 0.091-0.314c0.008-0.019 0.049-0.047 0.069-0.049l1.164 0.011c0.257 0 0.544-0.156 0.674-0.354zM20.625 7.5c1.034 0 1.875-0.841 1.875-1.875s-0.841-1.875-1.875-1.875-1.875 0.841-1.875 1.875 0.841 1.875 1.875 1.875zM20.625 4.375c0.689 0 1.25 0.561 1.25 1.25s-0.561 1.25-1.25 1.25-1.25-0.561-1.25-1.25 0.561-1.25 1.25-1.25z"></path>
</svg>
