<!-- Generated by IcoMoon.io -->
<svg version="1.1" xmlns="http://www.w3.org/2000/svg" width="20" height="20" viewBox="0 0 20 20">
<title>layers1</title>
<path fill="#698cf0" d="M19.228 4.539l-7.214-4.072c-0.982-0.554-2.669-0.555-3.653 0l-7.214 4.072c-0.552 0.312-0.855 0.748-0.855 1.229s0.304 0.918 0.855 1.229l7.214 4.072c0.491 0.277 1.14 0.43 1.826 0.43s1.336-0.153 1.827-0.43l7.214-4.072c0.552-0.311 0.856-0.748 0.856-1.229s-0.304-0.918-0.856-1.229zM18.899 6.416l-7.214 4.072c-0.774 0.437-2.223 0.437-2.996 0l-7.214-4.073c-0.328-0.185-0.515-0.421-0.515-0.647s0.188-0.463 0.515-0.648l7.214-4.072c0.387-0.219 0.933-0.344 1.498-0.344s1.111 0.126 1.498 0.344l7.214 4.072c0.328 0.185 0.516 0.421 0.516 0.648s-0.187 0.463-0.515 0.647zM19.228 8.812c-0.16-0.091-0.364-0.034-0.456 0.127-0.091 0.161-0.034 0.364 0.127 0.455 0.328 0.185 0.516 0.421 0.516 0.648s-0.188 0.462-0.516 0.648l-7.214 4.072c-0.811 0.458-2.184 0.459-2.996 0l-7.214-4.072c-0.328-0.185-0.515-0.421-0.515-0.648s0.188-0.463 0.515-0.647c0.161-0.091 0.217-0.294 0.127-0.455s-0.296-0.218-0.456-0.127c-0.552 0.311-0.855 0.748-0.855 1.229s0.303 0.918 0.855 1.229l7.214 4.072c0.512 0.289 1.169 0.434 1.826 0.434s1.315-0.144 1.827-0.434l7.214-4.072c0.552-0.311 0.856-0.748 0.856-1.229s-0.304-0.918-0.855-1.229zM19.228 13.002c-0.16-0.091-0.364-0.034-0.456 0.127-0.091 0.161-0.034 0.364 0.127 0.455 0.328 0.185 0.516 0.421 0.516 0.648s-0.188 0.462-0.516 0.648l-7.214 4.073c-0.811 0.458-2.184 0.459-2.996 0l-7.214-4.073c-0.328-0.185-0.515-0.421-0.515-0.648s0.188-0.462 0.515-0.648c0.161-0.091 0.217-0.294 0.127-0.455s-0.296-0.218-0.456-0.127c-0.551 0.312-0.854 0.748-0.854 1.23s0.303 0.918 0.855 1.229l7.214 4.072c0.512 0.289 1.169 0.434 1.826 0.434s1.315-0.144 1.827-0.434l7.214-4.072c0.552-0.312 0.856-0.748 0.856-1.229s-0.304-0.918-0.856-1.229z"></path>
</svg>
