<!-- Generated by IcoMoon.io -->
<svg version="1.1" xmlns="http://www.w3.org/2000/svg" width="640" height="640" viewBox="0 0 640 640">
<title></title>
<g id="icomoon-ignore">
</g>
<path fill="#000" d="M615.3 145.24l-230.86-130.3c-31.42-17.74-85.42-17.76-116.9 0l-230.86 130.3c-17.66 9.98-27.36 23.94-27.36 39.34s9.72 29.36 27.36 39.32l230.86 130.32c15.72 8.88 36.48 13.76 58.44 13.76 21.98 0 42.74-4.9 58.46-13.76l230.86-130.32c17.66-9.96 27.38-23.92 27.38-39.32s-9.74-29.36-27.38-39.34zM604.78 205.3l-230.86 130.32c-24.76 13.98-71.12 14-95.88 0l-230.86-130.32c-10.48-5.92-16.48-13.48-16.48-20.72 0-7.26 6-14.8 16.48-20.74l230.86-130.32c12.38-7 29.86-11 47.92-11 18.080 0 35.56 4.020 47.94 11l230.86 130.32c10.48 5.92 16.5 13.48 16.5 20.74 0.020 7.24-5.98 14.8-16.48 20.72zM615.3 281.98c-5.12-2.9-11.64-1.1-14.58 4.060-2.9 5.14-1.080 11.66 4.060 14.56 10.48 5.92 16.5 13.48 16.5 20.72s-6.020 14.8-16.5 20.72l-230.86 130.32c-25.96 14.66-69.88 14.68-95.88 0l-230.86-130.32c-10.48-5.92-16.48-13.48-16.48-20.72s6-14.8 16.48-20.72c5.14-2.9 6.96-9.42 4.060-14.56-2.92-5.16-9.46-6.98-14.58-4.060-17.66 9.96-27.36 23.94-27.36 39.34s9.7 29.38 27.36 39.34l230.86 130.32c16.38 9.24 37.42 13.88 58.44 13.88 21.040 0 42.080-4.62 58.46-13.88l230.86-130.32c17.66-9.96 27.38-23.94 27.38-39.34s-9.72-29.38-27.36-39.34zM615.3 416.080c-5.12-2.9-11.64-1.1-14.58 4.060-2.9 5.14-1.080 11.66 4.060 14.56 10.48 5.92 16.5 13.48 16.5 20.72s-6.020 14.8-16.5 20.74l-230.86 130.32c-25.96 14.66-69.88 14.68-95.88 0l-230.86-130.34c-10.48-5.92-16.48-13.48-16.48-20.74 0-7.24 6-14.8 16.48-20.72 5.14-2.9 6.96-9.42 4.060-14.56-2.92-5.14-9.46-6.98-14.58-4.060-17.62 9.98-27.34 23.94-27.34 39.36s9.7 29.38 27.36 39.34l230.86 130.32c16.38 9.24 37.42 13.88 58.44 13.88 21.040 0 42.080-4.62 58.46-13.88l230.86-130.32c17.66-9.98 27.38-23.94 27.38-39.34s-9.74-29.38-27.38-39.34z"></path>
</svg>
