<!-- Generated by IcoMoon.io -->
<svg version="1.1" xmlns="http://www.w3.org/2000/svg" width="20" height="20" viewBox="0 0 20 20">
<title>mobile</title>
<path fill="#698cf0" d="M0.938 20h8.75c0.172 0 0.313-0.14 0.313-0.313s-0.14-0.313-0.313-0.313h-8.75c-0.172 0-0.313-0.14-0.313-0.313v-18.125c0-0.172 0.14-0.313 0.313-0.313h13.125c0.172 0 0.313 0.14 0.313 0.313v3.125c0 0.172 0.14 0.313 0.313 0.313s0.313-0.14 0.313-0.313v-3.125c0-0.517-0.421-0.938-0.938-0.938h-13.125c-0.517 0-0.938 0.421-0.938 0.938v18.125c0 0.517 0.421 0.938 0.938 0.938zM11.25 6.563v12.5c0 0.517 0.421 0.938 0.938 0.938h6.875c0.517 0 0.938-0.421 0.938-0.938v-12.5c0-0.517-0.421-0.938-0.938-0.938h-6.875c-0.517 0-0.938 0.421-0.938 0.938zM19.375 6.563v12.5c0 0.172-0.14 0.313-0.313 0.313h-6.875c-0.172 0-0.313-0.14-0.313-0.313v-12.5c0-0.172 0.14-0.313 0.313-0.313h6.875c0.172 0 0.313 0.14 0.313 0.313zM6.875 17.5c0 0.345 0.28 0.625 0.625 0.625s0.625-0.28 0.625-0.625c0-0.345-0.28-0.625-0.625-0.625s-0.625 0.28-0.625 0.625zM15 17.5c0 0.345 0.28 0.625 0.625 0.625s0.625-0.28 0.625-0.625c0-0.345-0.28-0.625-0.625-0.625s-0.625 0.28-0.625 0.625z"></path>
</svg>
